<svg width="227" height="52" viewBox="0 0 227 52" fill="none" xmlns="http://www.w3.org/2000/svg">
<g id="Group 116046764">
<path id="Vector" d="M70.9062 17.8086H72.7208V20.9097H76.6313V17.8086H78.4458V26.0677H76.6313L76.6118 22.5404H72.7208V26.0677H70.9062V17.8086Z" fill="#C0A46F"/>
<path id="Vector_2" d="M94.0366 17.4492L98.7723 26.0642H96.8287L95.9919 24.5078H92.05L91.217 26.0642H89.2344L94.0327 17.4492H94.0366ZM95.1863 23.0061L94.0131 20.824L92.8477 23.0061H95.1824H95.1863Z" fill="#C0A46F"/>
<path id="Vector_3" d="M107.555 17.8089H109.553L111.516 22.4899L113.788 17.5312L116.056 22.4899L118.058 17.8089H120.029L116.041 26.4474L113.788 21.2307L111.532 26.4474L107.555 17.8089Z" fill="#C0A46F"/>
<path id="Vector_4" d="M136.373 26.0677L132.627 21.9421V26.0677H130.812V17.8086H132.627V21.07L135.685 17.8086H138.102L134.492 21.5119L138.751 26.0677H136.373Z" fill="#C0A46F"/>
<path id="Vector_5" d="M154.263 26.0677L151.096 22.6108V26.0677H149.281V17.8086H153.215C155.128 17.8086 156.332 18.7823 156.332 20.4404C156.332 22.0985 155.354 22.9002 153.567 22.9627L156.676 26.0717H154.263V26.0677ZM151.096 21.4572H153.36C154.044 21.4572 154.482 21.1169 154.482 20.4404C154.482 19.7639 154.044 19.4315 153.36 19.4315H151.096V21.4572Z" fill="#C0A46F"/>
<path id="Vector_6" d="M168 17.8086H169.815V26.0677H168V17.8086Z" fill="#C0A46F"/>
<path id="Vector_7" d="M181.867 17.8087L184.675 17.7931C187.643 17.7774 189.497 19.5411 189.497 21.95C189.497 24.3589 187.639 26.0679 184.675 26.0679H181.867V17.8087ZM184.671 24.4176C186.755 24.4098 187.686 23.4751 187.686 21.9539C187.686 20.4327 186.755 19.4512 184.671 19.4316L183.67 19.4238V24.4215H184.671V24.4176Z" fill="#C0A46F"/>
<path id="Vector_8" d="M200.578 21.9452C200.578 19.5363 202.502 17.6475 205.013 17.6475C206.436 17.6475 207.672 18.2536 208.474 19.2195L207.081 20.3067C206.6 19.7044 205.85 19.3447 205.009 19.3447C203.558 19.3447 202.381 20.4201 202.381 21.9452C202.381 23.4703 203.558 24.5457 205.009 24.5457C205.861 24.5457 206.62 24.1234 207.011 23.6072V21.9452H208.826V24.186C208.004 25.3826 206.597 26.2351 205.013 26.2351C202.502 26.2351 200.578 24.358 200.578 21.9491V21.9452Z" fill="#C0A46F"/>
<path id="Vector_9" d="M220.473 17.8086H226.992V19.455H222.275V20.8979L225.584 20.9058V22.5013H222.275V24.4175H226.999V26.0677H220.469V17.8086H220.473Z" fill="#C0A46F"/>
<path id="Vector_10" d="M52.9258 0.00390246H39.6885C41.2136 2.63963 44.0683 4.41503 47.3336 4.41503H52.9258C54.5565 4.41503 55.9799 5.30274 56.7464 6.62061H41.894C43.2471 9.32282 46.0119 11.0317 49.0347 11.0317H57.3408C59.1475 11.0317 60.7469 11.9038 61.7519 13.249V8.82617C61.7519 3.96141 57.7905 0 52.9258 0V0.00390246ZM31.1478 5.76027L22.1378 8.17311C19.7836 8.80271 18.3875 11.2234 19.0171 13.5775L27.5696 11.2859C30.0059 10.6329 31.5545 8.25131 31.1478 5.76027ZM35.8405 16.1741L27.0143 25.0003C25.2897 26.7249 25.2897 29.517 27.0143 31.2416L35.5081 22.7478C37.2913 20.9646 37.436 18.1294 35.8405 16.1781V16.1741ZM32.8098 11.2781L23.7098 16.53C21.5981 17.7501 20.8747 20.4484 22.0948 22.5601L30.788 17.5428C32.974 16.2836 33.8461 13.5814 32.8098 11.282V11.2781ZM50.7163 17.4959C43.2432 16.4244 37.479 9.97588 37.479 2.20947V0.00390246H0L0.985465 1.97875C1.73239 3.47259 3.26142 4.41895 4.93124 4.41895H33.1891C34.2097 13.6088 41.5225 20.9294 50.7124 21.9462V47.4431C50.7124 49.8794 52.6872 51.8543 55.1274 51.8543V17.4959C54.4079 17.6015 53.6727 17.6563 52.9219 17.6563C52.171 17.6563 51.4358 17.6015 50.7163 17.4959ZM40.0404 20.116L32.3913 33.365C31.1712 35.4768 31.8947 38.1751 34.0064 39.3952L41.4169 26.5567C42.6801 24.3707 42.0856 21.5942 40.0404 20.1199V20.116ZM45.1163 22.8456C45.1163 22.8456 45.1163 22.8456 45.1124 22.8456L40.2125 41.1276C39.5829 43.4817 40.979 45.9024 43.3331 46.532L48.1118 28.6997C48.7649 26.2634 47.4744 23.7372 45.1163 22.8456Z" fill="#C0A46F"/>
</g>
</svg>
